<?xml version="1.0" encoding="utf-8"?>
<!-- Generator: Adobe Illustrator 25.1.0, SVG Export Plug-In . SVG Version: 6.00 Build 0)  -->
<svg version="1.1" id="Layer_1" xmlns="http://www.w3.org/2000/svg" xmlns:xlink="http://www.w3.org/1999/xlink" x="0px" y="0px"
	 viewBox="0 0 107 87" style="enable-background:new 0 0 107 87;" xml:space="preserve">
<style type="text/css">
	.st0{fill:#FFFFFF;}
	.st1{fill:#FF3811;}
	.st2{fill:#444444;}
	.st3{enable-background:new    ;}
</style>
<path class="st0" d="M104,36.7c-0.5-1.6-1-3-1.4-4.4c-0.3-0.9-0.8-1.1-1.6-1.1c-2.8,0.1-5.6,0-8.3,0.3c-2.7,0.3-4.6-0.5-5.8-2.9
	c-0.4-0.7-1-1.4-1.5-2c-0.7-0.9-0.9-1.7-0.5-2.8c1.2-3.1,2.3-6.2,3.5-9.3c0.4-1,0.2-1.6-0.7-2.2c-1.7-1.1-3.2-2.3-4.8-3.4
	c-2.3-1.5-1.6-1.7-3.9,0c-2.5,1.8-5,3.7-7.4,5.6c-0.8,0.6-1.6,0.7-2.5,0.4c-1.5-0.6-3-1.1-4.5-1.5c-1.3-0.3-1.9-1.1-2.3-2.3
	c-0.9-3.1-1.9-6.3-2.8-9.4c-0.3-0.9-0.7-1.3-1.6-1.4c-2.3,0-4.6,0-6.9-0.1c-1.3-0.1-2,0.4-2.3,1.7C47.9,5,46.8,8,46,11
	c-0.3,1.2-0.9,1.9-2.2,2.2c-1.6,0.4-3.3,0.9-4.8,1.5c-1.1,0.4-1.9,0.2-2.7-0.4c-2.8-2.1-5.6-4.1-8.3-6.3c-0.7-0.6-1.3-0.6-2,0
	c-2,1.4-4,2.8-6,4.2c-0.8,0.6-0.9,1.1-0.5,2c1.2,3.2,2.4,6.5,3.5,9.7c0.2,0.6,0,1.5-0.3,2c-1,1.6-2.3,3-3.3,4.5
	c-0.6,0.9-1.4,1.3-2.5,1.2c-3.5-0.1-6.9-0.2-10.4-0.3c-0.5,0-1.2,0.2-1.4,0.6c-0.6,1.6-1.1,3.2-1.7,5c0.8,0,1.3,0,1.8,0
	c5.2,0,10.4-0.1,15.5,0.1c2,0.1,3.4-0.3,4.1-2.4c0.2-0.6,0.7-1.2,1.1-1.8c8.5-13.1,26-18.3,40.4-12.3c7.5,3.1,13.1,8.2,17,15.3
	c0.2,0.4,0.8,1,1.3,1C90.7,36.8,97.2,36.7,104,36.7z"/>
<path class="st1" d="M104,36.7c-6.8,0-13.3,0-19.9-0.1c-0.4,0-1-0.5-1.3-1c-3.9-7.1-9.5-12.2-17-15.3c-14.4-6-31.8-0.8-40.4,12.3
	c-0.4,0.6-0.9,1.1-1.1,1.8c-0.7,2-2,2.4-4.1,2.4C15,36.6,9.9,36.7,4.7,36.7c-0.5,0-1,0-1.8,0c0.6-1.8,1.1-3.4,1.7-5
	c0.1-0.3,0.9-0.6,1.4-0.6c3.5,0,7,0.1,10.4,0.3c1.1,0.1,1.8-0.3,2.5-1.2c1.1-1.5,2.3-3,3.3-4.5c0.3-0.5,0.5-1.4,0.3-2
	c-1.1-3.3-2.3-6.5-3.5-9.7c-0.3-0.9-0.3-1.5,0.5-2c2-1.3,4-2.8,6-4.2c0.7-0.5,1.3-0.5,2,0c2.7,2.1,5.6,4.2,8.3,6.3
	c0.8,0.6,1.6,0.9,2.7,0.4c1.6-0.6,3.2-1.1,4.8-1.5c1.3-0.3,1.9-1,2.2-2.2c0.8-3.1,1.9-6.1,2.7-9.1C48.6,0.4,49.3,0,50.5,0
	c2.3,0.1,4.6,0.1,6.9,0.1c1,0,1.4,0.4,1.6,1.4c0.9,3.1,1.9,6.3,2.8,9.4c0.3,1.2,1,2,2.3,2.3c1.6,0.4,3,0.9,4.5,1.5
	c0.9,0.4,1.7,0.3,2.5-0.4c2.5-1.9,4.9-3.7,7.4-5.6c2.3-1.7,1.7-1.6,3.9,0c1.6,1.1,3.2,2.3,4.8,3.4c0.9,0.6,1.1,1.2,0.7,2.2
	c-1.2,3.1-2.3,6.2-3.5,9.3c-0.4,1.1-0.3,2,0.5,2.8c0.5,0.6,1.1,1.3,1.5,2c1.2,2.4,3.1,3.3,5.8,2.9c2.7-0.3,5.5-0.2,8.3-0.3
	c0.9,0,1.4,0.3,1.6,1.1C103,33.7,103.5,35.1,104,36.7z"/>
<path class="st0" d="M75.3,46.2c-3.3-3.3-6.7-6.6-10-9.9c-0.6-0.6-1-0.2-1.4,0.2c-1.6,1.6-3.2,3.2-4.8,4.7c-1,1-2.1,1.9-3.2,2.9
	c0.1,0.1,0.2,0.3,0.3,0.4c3.1-0.6,5.9,0,8.1,2.2c2.2,2.2,2.8,5,2.3,8C69.5,51.9,72.4,49.1,75.3,46.2z"/>
<path class="st0" d="M51,44.3c-0.4-0.5-0.6-0.8-0.9-1c-2.3-2.2-4.6-4.4-6.8-6.7c-0.8-0.8-1.3-0.8-2,0c-2.9,3-5.9,5.9-8.9,8.8
	c-0.8,0.7-0.6,1.2,0.1,1.8c2.4,2.3,4.7,4.7,7.1,7c0.2,0.2,0.5,0.3,0.8,0.5C39.4,48,44.2,43.4,51,44.3z"/>
<path class="st0" d="M40.1,33.4C36.5,37,33,40.5,29.6,44c0.3,0.3,0.6,0.8,0.9,1.2c3.6-3.6,7.1-7.1,10.9-10.7
	C40.9,34.1,40.5,33.7,40.1,33.4z"/>
<path class="st0" d="M80.1,41.6c-0.1-0.1-0.1-0.3-0.3-0.4c-3.2-3.2-6.3-6.3-9.5-9.5c-0.5-0.5-0.9-0.6-1.5,0c-0.6,0.6-0.5,1,0.1,1.6
	c2.8,2.8,5.6,5.6,8.5,8.4c0.5,0.4,0.9,0.9,1.6,1.5C79.3,42.6,79.6,42.2,80.1,41.6z"/>
<path class="st0" d="M77.8,43.8c-3.3-3.3-6.5-6.4-9.7-9.6c-0.5-0.5-1-1-1.7-0.2s-0.3,1.2,0.3,1.7c2.9,2.8,5.7,5.7,8.6,8.5
	C76.5,45.5,76.5,45.5,77.8,43.8z"/>
<path class="st0" d="M38.9,32.3c-1.3-1.5-1.2-1.5-2.6-0.2c-2.8,2.7-5.5,5.5-8.3,8.2c-1.3,1.3-1.3,1.5,0.3,2.4
	C31.8,39.2,35.3,35.8,38.9,32.3z"/>
<path class="st2" d="M75.3,46.2c-3,2.9-5.8,5.7-8.7,8.6c0.6-3,0-5.7-2.3-8c-2.3-2.2-5-2.9-8.1-2.2c-0.1-0.1-0.2-0.3-0.3-0.4
	c1.1-1,2.1-1.9,3.2-2.9c1.6-1.6,3.2-3.1,4.8-4.7c0.4-0.4,0.8-0.8,1.4-0.2C68.7,39.6,72,42.9,75.3,46.2z M67.6,41.7
	c-0.6,0.8-1.3,1.3-1.2,1.7c0.1,0.5,0.8,0.9,1.3,1.3c0.4-0.4,1.1-0.8,1.1-1.3S68.2,42.4,67.6,41.7z"/>
<path class="st2" d="M51,44.3c-6.9-1-11.6,3.6-10.6,10.4c-0.3-0.2-0.6-0.3-0.8-0.5c-2.4-2.3-4.7-4.7-7.1-7c-0.6-0.6-0.8-1.1-0.1-1.8
	c3-2.9,6-5.8,8.9-8.8c0.8-0.8,1.2-0.8,2,0c2.2,2.3,4.5,4.5,6.8,6.7C50.4,43.6,50.6,43.9,51,44.3z M41.2,43.5
	c-0.8-0.6-1.3-1.3-1.7-1.3c-0.5,0.1-0.9,0.8-1.4,1.2c0.4,0.4,0.8,1.1,1.3,1.2C39.8,44.6,40.3,44,41.2,43.5z"/>
<path class="st2" d="M40.1,33.4c0.4,0.4,0.9,0.7,1.3,1.1c-3.7,3.7-7.2,7.1-10.9,10.7c-0.3-0.4-0.7-0.9-0.9-1.2
	C33,40.5,36.5,37,40.1,33.4z"/>
<path class="st2" d="M80.1,41.6c-0.5,0.6-0.8,1-1.2,1.6c-0.6-0.6-1.1-1-1.6-1.5c-2.8-2.8-5.6-5.6-8.5-8.4c-0.6-0.6-0.7-1-0.1-1.6
	c0.6-0.6,1-0.5,1.5,0c3.2,3.2,6.3,6.3,9.5,9.5C79.9,41.2,80,41.4,80.1,41.6z"/>
<path class="st2" d="M77.8,43.8c-1.3,1.7-1.3,1.7-2.6,0.4c-2.8-2.8-5.7-5.7-8.6-8.5c-0.6-0.5-1-1-0.3-1.7c0.7-0.8,1.2-0.4,1.7,0.2
	C71.3,37.4,74.6,40.6,77.8,43.8z"/>
<path class="st2" d="M38.9,32.3c-3.6,3.5-7.1,6.9-10.6,10.4c-1.6-0.9-1.6-1.1-0.3-2.4c2.8-2.7,5.5-5.5,8.3-8.2
	C37.6,30.8,37.6,30.8,38.9,32.3z"/>
<path class="st0" d="M67.6,41.7c0.5,0.8,1.2,1.3,1.1,1.7c0,0.4-0.7,0.9-1.1,1.3c-0.5-0.4-1.2-0.8-1.3-1.3
	C66.3,43,67.1,42.4,67.6,41.7z"/>
<path class="st0" d="M41.2,43.5c-0.8,0.5-1.4,1.1-1.8,1.1c-0.5-0.1-0.8-0.8-1.3-1.2c0.5-0.4,0.9-1.1,1.4-1.2
	C39.9,42.1,40.4,42.8,41.2,43.5z"/>
<g class="st3">
	<path class="st0" d="M13.1,75.7c0,0.2,0,0.6-0.1,1.2c-0.1,0.7-0.2,1-0.2,1.2c-0.1,0.1-0.1,0.1-0.3,0.1c0,0-0.1,0-0.2,0
		c-0.4-0.1-1.5-0.1-3.3-0.1c-0.4,0-1,0-1.8,0s-1.4,0-1.8,0c-0.2,0-0.3-0.1-0.3-0.2c0-0.6,0-1.5,0.1-2.6c0.1-1.2,0.1-2,0.1-2.6
		s0-1.7-0.1-3.3c0-0.4,0-1-0.1-1.9v-0.1c0-0.1,0.1-0.2,0.2-0.2c0.4,0,1,0,1.7,0s1.4,0,1.7,0c0.4,0,1,0,1.7,0s1.3,0,1.7,0
		c0.3,0,0.4,0.1,0.5,0.3c0,0.1,0.1,0.5,0.1,1.1s0.1,1,0.1,1.1s-0.1,0.2-0.2,0.2c0,0-0.1,0-0.2,0c-1.4-0.1-2.6-0.2-3.7-0.2
		c-0.3,0-0.4,0.1-0.5,0.2c0,0.1,0,0.3,0,0.6c0,0.4,0.1,0.6,0.2,0.7c0.1,0.1,0.3,0.1,0.5,0.1c0.1,0,0.2,0,0.3,0c0.2,0,0.3,0,0.4,0
		c0.7,0,1.3,0,2-0.1c0.1,0,0.2,0,0.4,0s0.3,0,0.4,0c0.1,0,0.2,0.1,0.2,0.2c0-0.1,0,0.3-0.1,1.2c0,0.4-0.1,0.8-0.1,1.2
		c0,0.1-0.1,0.2-0.2,0.2l-0.7-0.1c-0.3,0-1,0-2,0H8.6c-0.2,0-0.3,0.1-0.4,0.2c0,0,0,0.2,0,0.5c0,0.4,0,0.7,0.1,0.8
		c0.1,0.2,0.4,0.3,1,0.4c0,0,0.4,0,1.1,0c0.3,0,0.7,0,1.2-0.1c0.5,0,1-0.1,1.2-0.1C13,75.5,13.1,75.5,13.1,75.7z"/>
	<path class="st0" d="M21.8,77.9c0,0.1-0.1,0.2-0.2,0.2s-0.5,0-1.1,0c-0.7,0-1.1,0-1.2,0S19,78,19,77.8s0-0.6,0-1.1s0-0.9,0-1.1
		s0-0.5,0-0.9s0-0.7,0-0.9c0-0.7-0.3-1.1-0.9-1.1c-0.2,0-0.4,0.1-0.7,0.3c-0.3,0.2-0.4,0.4-0.4,0.6v4.2c0,0.2-0.1,0.3-0.2,0.3
		c-0.2,0-0.6,0-1.1,0c-0.6,0-1,0-1.2,0s-0.2-0.1-0.2-0.3c0-0.4,0-1,0-1.8s0-1.4,0-1.8c0-1.3-0.1-2.3-0.3-3.1V71c0-0.1,0-0.1,0.1-0.2
		c0.3,0,0.8-0.1,1.3-0.2c0.8-0.2,1.3-0.2,1.4-0.2s0.1,0.2,0.1,0.5s0.1,0.5,0.1,0.5c-0.1,0,0.2-0.2,0.8-0.5s1.2-0.5,1.6-0.5
		c0.7,0,1.2,0.2,1.7,0.5c0.5,0.4,0.7,0.9,0.7,1.5v2.5c0,0.3,0,0.8,0,1.5C21.8,77.1,21.8,77.6,21.8,77.9z"/>
	<path class="st0" d="M30.9,76.1c0,1.5-0.3,2.5-0.9,3.2s-1.7,1-3.2,1c-0.4,0-1-0.1-1.8-0.2c-1-0.2-1.4-0.4-1.4-0.6
		c0-0.1,0.1-0.6,0.3-1.5c0-0.1,0.1-0.2,0.2-0.2h0.1c0.8,0.4,1.5,0.6,2.2,0.6c0.4,0,0.7-0.1,1.1-0.3c0.4-0.2,0.7-0.5,0.7-0.8v-0.5
		c-0.5,0.5-1.2,0.8-2,0.8c-1,0-1.8-0.4-2.4-1.1S22.9,75,22.9,74s0.3-1.8,0.9-2.5s1.4-1,2.4-1c0.8,0,1.4,0.3,1.8,0.8
		c0.1,0.1,0.1,0.2,0.2,0.2c0,0,0.1-0.1,0.1-0.3c0-0.4,0-0.6,0.1-0.6s0.5,0,1.4,0.1c0.8,0.1,1.2,0.1,1.3,0.1c0.1,0,0.1,0.1,0.1,0.2
		c0,0.4,0,0.9,0,1.6s0,1.2,0,1.6c0,0.2,0,0.5,0,1C30.9,75.6,30.9,75.9,30.9,76.1z M28.2,74c0-0.4-0.1-0.7-0.4-1s-0.6-0.4-0.9-0.4
		c-0.4,0-0.7,0.1-0.9,0.4c-0.3,0.3-0.4,0.6-0.4,1s0.1,0.7,0.4,1s0.6,0.4,0.9,0.4c0.4,0,0.7-0.1,0.9-0.4C28.1,74.7,28.2,74.3,28.2,74
		z"/>
	<path class="st0" d="M35.2,74.6c0,0.4,0,0.9,0,1.7s0,1.3,0,1.7c0,0.1-0.1,0.2-0.2,0.2c-0.2,0-0.6,0-1.2,0c-0.6,0-1,0-1.2,0
		c-0.1,0-0.2-0.1-0.2-0.1s0-0.1,0-0.2c0-0.4,0-0.9,0-1.6s0-1.3,0-1.6c0-1.5-0.1-2.7-0.2-3.5c0-0.1,0-0.1,0-0.2s0.1-0.2,0.2-0.2
		c0.1,0,0.4,0,0.7,0s0.5,0,0.7,0s0.4,0,0.7,0s0.5,0,0.7,0c0.1,0,0.2,0.1,0.2,0.2v0.1C35.2,72.1,35.2,73.2,35.2,74.6z M35.4,68.8
		c0,0.9-0.5,1.4-1.5,1.4c-0.4,0-0.8-0.1-1.1-0.3c-0.3-0.2-0.5-0.6-0.5-1s0.2-0.7,0.5-1c0.3-0.2,0.7-0.4,1.1-0.4
		c0.4,0,0.8,0.1,1.1,0.4C35.2,68,35.4,68.4,35.4,68.8z"/>
	<path class="st0" d="M44.4,77.9c0,0.1-0.1,0.2-0.2,0.2c-0.1,0-0.5,0-1.1,0c-0.7,0-1.1,0-1.2,0s-0.2-0.1-0.2-0.3c0-0.2,0-0.6,0-1.1
		s0-0.9,0-1.1s0-0.5,0-0.9s0-0.7,0-0.9c0-0.7-0.3-1.1-0.9-1.1c-0.2,0-0.4,0.1-0.7,0.3c-0.3,0.2-0.4,0.4-0.4,0.6v4.2
		c0,0.2-0.1,0.3-0.2,0.3c-0.2,0-0.6,0-1.1,0c-0.6,0-1,0-1.2,0S37,78,37,77.8c0-0.4,0-1,0-1.8s0-1.4,0-1.8c0-1.3-0.1-2.3-0.3-3.1V71
		c0-0.1,0-0.1,0.1-0.2c0.3,0,0.8-0.1,1.3-0.2c0.8-0.2,1.3-0.2,1.4-0.2c0.1,0,0.1,0.2,0.1,0.5s0.1,0.5,0.1,0.5
		c-0.1,0,0.2-0.2,0.8-0.5s1.2-0.5,1.6-0.5c0.7,0,1.2,0.2,1.7,0.5c0.5,0.4,0.7,0.9,0.7,1.5v2.5c0,0.3,0,0.8,0,1.5
		C44.4,77.1,44.4,77.6,44.4,77.9z"/>
	<path class="st0" d="M52.9,73.9c0,0.5-0.2,0.8-0.5,0.9c-0.1,0-0.6,0.1-1.6,0.2c-0.6,0.1-1.5,0.1-2.8,0.2c0.1,0.3,0.3,0.6,0.7,0.8
		c0.3,0.1,0.6,0.2,1,0.2c0.5,0,0.9-0.1,1.4-0.4c0.2-0.1,0.4-0.2,0.6-0.4c0.1,0.1,0.3,0.3,0.6,0.8s0.4,0.8,0.4,0.9c0,0,0,0.1-0.1,0.2
		c-0.6,0.7-1.6,1-3,1c-1.2,0-2.2-0.4-3-1.1s-1.2-1.7-1.2-2.9c0-1.2,0.3-2.2,1-2.9c0.7-0.8,1.7-1.2,2.9-1.2c1,0,1.8,0.4,2.5,1.1
		C52.5,72.1,52.9,72.9,52.9,73.9z M50.2,73.4c0-0.3-0.1-0.6-0.3-0.9c-0.2-0.2-0.5-0.4-0.8-0.4s-0.6,0.1-0.8,0.4S48,73.1,48,73.4
		c0,0.1,0.1,0.2,0.2,0.2c0.4,0,1-0.1,1.8-0.2C50.1,73.5,50.2,73.5,50.2,73.4z"/>
	<path class="st0" d="M65.8,75.7c0,0.2,0,0.6-0.1,1.2c-0.1,0.7-0.2,1-0.2,1.2c-0.1,0.1-0.1,0.1-0.3,0.1c0,0-0.1,0-0.2,0
		c-0.4-0.1-1.5-0.1-3.3-0.1c-0.4,0-1,0-1.8,0s-1.4,0-1.8,0c-0.2,0-0.3-0.1-0.3-0.2c0-0.6,0-1.5,0.1-2.6c0.1-1.2,0.1-2,0.1-2.6
		s0-1.7-0.1-3.3c0-0.4,0-1-0.1-1.9v-0.1c0-0.1,0.1-0.2,0.2-0.2c0.4,0,1,0,1.7,0s1.4,0,1.7,0c0.4,0,1,0,1.7,0s1.3,0,1.7,0
		c0.3,0,0.4,0.1,0.5,0.3c0,0.1,0.1,0.5,0.1,1.1s0.1,1,0.1,1.1s-0.1,0.2-0.2,0.2c0,0-0.1,0-0.2,0c-1.4-0.1-2.6-0.2-3.7-0.2
		c-0.3,0-0.4,0.1-0.5,0.2c0,0.1,0,0.3,0,0.6c0,0.4,0.1,0.6,0.2,0.7c0.1,0.1,0.3,0.1,0.5,0.1c0.1,0,0.2,0,0.3,0c0.2,0,0.3,0,0.4,0
		c0.7,0,1.3,0,2-0.1c0.1,0,0.2,0,0.4,0c0.2,0,0.3,0,0.4,0s0.2,0.1,0.2,0.2c0-0.1,0,0.3-0.1,1.2c0,0.4-0.1,0.8-0.1,1.2
		c0,0.1-0.1,0.2-0.2,0.2l-0.7-0.1c-0.3,0-1,0-2,0h-0.8c-0.2,0-0.3,0.1-0.4,0.2c0,0,0,0.2,0,0.5c0,0.4,0,0.7,0.1,0.8
		c0.1,0.2,0.4,0.3,1,0.4c0,0,0.4,0,1.1,0c0.3,0,0.7,0,1.2-0.1c0.5,0,1-0.1,1.2-0.1C65.8,75.5,65.8,75.5,65.8,75.7z"/>
	<path class="st0" d="M73.7,78c0,0.1-0.1,0.2-0.3,0.2c-0.3,0-0.6,0.1-1,0.1s-0.7,0-0.9-0.1c-0.1,0-0.2-0.1-0.3-0.2
		c-0.3-0.4-0.6-0.9-1.2-1.6c-0.1,0.2-0.6,0.7-1.3,1.6c-0.1,0.1-0.2,0.2-0.3,0.2c-0.2,0-0.5,0.1-0.9,0.1c-0.8,0-1.2-0.1-1.2-0.3
		c0-0.2,0-0.4,0-0.7c0-0.3,0-0.5,0-0.7c0-0.1,0-0.2,0.1-0.3c0.4-0.4,1-1.1,1.8-1.9c-0.4-0.3-0.7-0.7-1.1-1c-0.6-0.6-0.9-0.9-0.9-1
		V71c0-0.1,0.1-0.2,0.3-0.2c0.2,0,0.5,0,0.9,0s0.7,0,0.9,0c0.1,0,0.2,0.1,0.3,0.2c0.3,0.4,0.7,0.9,1.2,1.4c0.5-0.6,0.8-1,1.1-1.4
		c0.1-0.1,0.2-0.2,0.3-0.2c0.2,0,0.5,0,1,0c0.4,0,0.8,0,1,0s0.3,0.1,0.3,0.2v1.4c0,0.1,0,0.2-0.1,0.3c-0.4,0.4-1,1-1.8,1.8
		c0.4,0.4,1,1,1.8,1.9c0.1,0.1,0.1,0.2,0.1,0.3V78H73.7z"/>
	<path class="st0" d="M83.2,74.4c0,1.1-0.3,2-1,2.8s-1.6,1.1-2.7,1.1c-0.4,0-0.8-0.1-1.3-0.3c-0.5-0.2-0.7-0.3-0.6-0.3
		c-0.1,0-0.1,0.1-0.1,0.2c0,0.3,0,0.7,0,1.2s0,0.9,0,1.2c0,0.2-0.1,0.2-0.3,0.2h-1.6c-0.4,0-0.6,0-0.7,0c-0.2,0-0.2-0.1-0.2-0.3v-6
		c0-1.2-0.1-2.2-0.3-3.1c0-0.1,0-0.1,0-0.1c0-0.1,0-0.1,0.1-0.2c0.2-0.1,0.6-0.2,1.2-0.2c0.6-0.1,1-0.1,1.2-0.1s0.3,0.1,0.3,0.4
		s0.1,0.4,0.1,0.4c-0.1,0,0.2-0.1,0.7-0.4s0.9-0.4,1.4-0.4c1.1,0,2,0.4,2.7,1.1C82.9,72.3,83.2,73.3,83.2,74.4z M80.3,74.4
		c0-0.4-0.1-0.8-0.4-1.1c-0.3-0.3-0.6-0.5-1-0.5s-0.8,0.2-1,0.5s-0.3,0.7-0.3,1.1s0.1,0.8,0.3,1.1c0.2,0.3,0.6,0.5,1,0.5
		C79.9,76,80.3,75.4,80.3,74.4z"/>
	<path class="st0" d="M91.4,73.9c0,0.5-0.2,0.8-0.5,0.9c-0.1,0-0.6,0.1-1.6,0.2c-0.6,0.1-1.5,0.1-2.8,0.2c0.1,0.3,0.3,0.6,0.7,0.8
		c0.3,0.1,0.6,0.2,1,0.2c0.5,0,0.9-0.1,1.4-0.4c0.2-0.1,0.4-0.2,0.6-0.4c0.1,0.1,0.3,0.3,0.6,0.8s0.4,0.8,0.4,0.9c0,0,0,0.1-0.1,0.2
		c-0.6,0.7-1.6,1-3,1c-1.2,0-2.2-0.4-3-1.1s-1.2-1.7-1.2-2.9c0-1.2,0.3-2.2,1-2.9c0.7-0.8,1.7-1.2,2.9-1.2c1,0,1.8,0.4,2.5,1.1
		C91.1,72.1,91.4,72.9,91.4,73.9z M88.7,73.4c0-0.3-0.1-0.6-0.3-0.9c-0.2-0.2-0.5-0.4-0.8-0.4s-0.6,0.1-0.8,0.4
		c-0.2,0.3-0.3,0.6-0.3,0.9c0,0.1,0.1,0.2,0.2,0.2c0.4,0,1-0.1,1.8-0.2C88.6,73.5,88.7,73.5,88.7,73.4z"/>
	<path class="st0" d="M97.4,73.3c0,0.2-0.1,0.3-0.3,0.3c-0.1,0-0.2,0-0.4,0c-0.2,0-0.3,0-0.4,0c-0.4,0-0.7,0.1-0.9,0.2
		s-0.2,0.4-0.2,0.8c0,0.2,0,0.6,0,1s0,0.8,0,1s0,0.4,0,0.7c0,0.3,0,0.5,0,0.7c0,0.1-0.1,0.2-0.3,0.2c-0.2,0-0.6,0-1.1,0
		s-0.9,0-1.2,0c-0.2,0-0.3-0.1-0.3-0.3c0-0.4,0-1,0-1.9c0-0.8,0-1.5,0-1.9c0-1.2-0.1-2.2-0.3-3V71c0-0.1,0-0.1,0.1-0.2
		c0.3,0,0.7-0.1,1.3-0.2c0.8-0.2,1.2-0.2,1.3-0.2c0.1,0,0.2,0.2,0.2,0.5s0.1,0.5,0.1,0.5c-0.1,0,0.1-0.1,0.6-0.4s1-0.4,1.4-0.4
		c0.3,0,0.4,0.1,0.4,0.2c0,0.2,0,0.4,0,0.6c0,0.3,0,0.5-0.1,0.6c0,0.2,0,0.4,0,0.6C97.4,73,97.4,73.2,97.4,73.3z"/>
	<path class="st0" d="M103.6,75.9c0,0.2,0,0.4-0.1,0.7s-0.1,0.6-0.1,0.7s0,0.2,0,0.3s-0.1,0.1-0.3,0.2c-0.7,0.4-1.4,0.6-2.2,0.6
		c-1.5,0-2.3-0.6-2.3-1.7c0-0.3,0-0.9,0-1.6s0-1.2,0-1.6c0-0.2-0.1-0.3-0.4-0.3h-0.1H98c-0.2,0-0.3-0.1-0.3-0.2s0-0.2,0-0.4
		c0-0.2,0-0.3,0-0.4s0-0.3,0-0.5s0-0.4,0-0.5s0.2-0.2,0.5-0.2c0.2,0,0.3-0.1,0.3-0.2c0-0.2,0-0.5,0-0.9c0-0.7,0-1,0-1
		c0-0.6,0.1-0.9,0.2-0.9s0.3,0,0.6,0.1c0.3,0.1,0.5,0.1,0.6,0.1c0.3,0,0.7,0.1,1.2,0.1c0.1,0,0.2,0.1,0.2,0.1c0,0.2,0,0.5-0.1,0.9
		c0,0.4-0.1,0.7-0.1,1s0.1,0.4,0.2,0.4c0.2,0,0.5,0,0.8,0c0.4,0,0.6,0,0.8,0c0.1,0,0.2,0,0.2,0.1s0,0.3,0,0.5s0,0.4,0,0.5
		s0,0.3,0,0.5s0,0.4,0,0.5S103,73,102.9,73s-0.3,0-0.5,0s-0.4,0-0.5,0h-0.6c-0.1,0-0.1,0.1-0.1,0.3c0,0.1,0,0.3,0,0.6
		c0,0.2,0,0.4,0,0.6c0,0.4,0,0.7,0.1,0.9c0.1,0.2,0.4,0.3,0.8,0.3c0.1,0,0.3,0,0.6-0.1s0.4-0.1,0.5-0.1
		C103.5,75.7,103.6,75.8,103.6,75.9z"/>
</g>
</svg>
